<svg width="16" height="16" viewBox="0 0 16 16" fill="none" xmlns="http://www.w3.org/2000/svg">
<path fill-rule="evenodd" clip-rule="evenodd" d="M10.2728 1.62071C10.6817 1.62071 11.0901 1.67839 11.4783 1.80867C13.8706 2.58645 14.7327 5.21145 14.0126 7.50589C13.6042 8.67839 12.9367 9.74849 12.0623 10.6228C10.8107 11.8349 9.4373 12.9108 7.95887 13.8377L7.79684 13.9355L7.62832 13.8312C6.14471 12.9108 4.7635 11.8349 3.50026 10.6164C2.63174 9.74201 1.9635 8.67839 1.54869 7.50589C0.816279 5.21145 1.67832 2.58645 4.09656 1.79506C4.28452 1.73025 4.47832 1.68488 4.67276 1.6596H4.75054C4.93267 1.63302 5.1135 1.62071 5.29498 1.62071H5.36628C5.77461 1.63302 6.16998 1.70432 6.55304 1.8346H6.59128C6.61721 1.84691 6.63665 1.86052 6.64961 1.87284C6.79285 1.91886 6.92832 1.97071 7.05795 2.04201L7.30424 2.15219C7.36376 2.18393 7.43056 2.23243 7.48829 2.27435C7.52487 2.3009 7.55781 2.32482 7.58295 2.34015C7.59353 2.34639 7.60428 2.35267 7.61512 2.359C7.67069 2.39144 7.72858 2.42523 7.77739 2.46265C8.49748 1.91238 9.37184 1.61423 10.2728 1.62071ZM11.9968 6.28738C12.2626 6.28025 12.4894 6.06701 12.5089 5.79414V5.71701C12.5283 4.80895 11.978 3.98645 11.1413 3.66886C10.8755 3.57747 10.5839 3.72071 10.4867 3.99293C10.3959 4.26515 10.5385 4.5633 10.8107 4.65988C11.2262 4.81543 11.5042 5.22441 11.5042 5.67747V5.69756C11.4919 5.84599 11.5367 5.98923 11.6274 6.09941C11.7181 6.2096 11.8542 6.27377 11.9968 6.28738Z" fill="white"/>
</svg>
