<svg width="14" height="14" viewBox="0 0 14 14" fill="none" xmlns="http://www.w3.org/2000/svg">
<path fill-rule="evenodd" clip-rule="evenodd" d="M9.24617 1.45883C9.61425 1.45883 9.98175 1.51075 10.3312 1.628C12.4843 2.328 13.2601 4.6905 12.612 6.7555C12.2445 7.81075 11.6437 8.77383 10.8568 9.56075C9.73034 10.6516 8.49425 11.6199 7.16367 12.4541L7.01784 12.5422L6.86617 12.4482C5.53092 11.6199 4.28783 10.6516 3.15092 9.55492C2.36925 8.768 1.76784 7.81075 1.3945 6.7555C0.735335 4.6905 1.51117 2.328 3.68759 1.61575C3.85675 1.55742 4.03117 1.51658 4.20617 1.49383H4.27617C4.44009 1.46992 4.60284 1.45883 4.76617 1.45883H4.83033C5.19783 1.46992 5.55367 1.53408 5.89842 1.65133H5.93283C5.95617 1.66242 5.97367 1.67467 5.98533 1.68575C6.11425 1.72717 6.23617 1.77383 6.35284 1.838L6.5745 1.93717C6.62806 1.96573 6.68819 2.00938 6.74015 2.04711C6.77307 2.07101 6.80271 2.09253 6.82534 2.10633C6.83486 2.11195 6.84453 2.1176 6.85429 2.12329C6.9043 2.15249 6.9564 2.1829 7.00033 2.21658C7.64842 1.72133 8.43534 1.453 9.24617 1.45883ZM10.7978 5.65883C11.037 5.65241 11.2412 5.4605 11.2587 5.21491V5.1455C11.2762 4.32825 10.7809 3.588 10.0278 3.30216C9.78866 3.21991 9.52616 3.34883 9.43866 3.59383C9.357 3.83883 9.48533 4.10716 9.73033 4.19408C10.1042 4.33408 10.3545 4.70216 10.3545 5.10991V5.128C10.3434 5.26158 10.3837 5.3905 10.4653 5.48966C10.547 5.58883 10.6695 5.64658 10.7978 5.65883Z" fill="#808191"/>
</svg>
