<svg width="20" height="20" viewBox="0 0 20 20" fill="none" xmlns="http://www.w3.org/2000/svg">
<path opacity="0.1" d="M0 10C0 15.51 4.48 20 10 20C15.51 20 20 15.51 20 10C20 4.48 15.51 0 10 0C4.48 0 0 4.48 0 10V10Z" fill="white"/>
<path d="M12.9404 8.02998C13.2304 7.72998 13.7004 7.72998 14.0004 8.01998C14.1504 8.16998 14.2204 8.35998 14.2204 8.55998C14.2204 8.74998 14.1504 8.93998 14.0004 9.07998L10.5304 12.57C10.3904 12.71 10.2004 12.79 10.0004 12.79C9.80039 12.79 9.61039 12.71 9.47039 12.57L6.00039 9.07998C5.70039 8.78998 5.70039 8.31998 6.00039 8.01998C6.29039 7.72998 6.77039 7.72998 7.06039 8.02998L10.0004 10.98L12.9404 8.02998Z" fill="white"/>
</svg>
