<svg width="28" height="28" viewBox="0 0 28 28" fill="none" xmlns="http://www.w3.org/2000/svg">
<g opacity="0.3">
<path fill-rule="evenodd" clip-rule="evenodd" d="M2.33301 13.9999C2.33301 7.55992 7.54801 2.33325 13.9997 2.33325C20.4397 2.33325 25.6663 7.55992 25.6663 13.9999C25.6663 20.4399 20.4397 25.6666 13.9997 25.6666C7.54801 25.6666 2.33301 20.4399 2.33301 13.9999ZM8.77301 15.3999C8.00301 15.3999 7.37301 14.7699 7.37301 13.9999C7.37301 13.2299 8.00301 12.6011 8.77301 12.6011C9.54301 12.6011 10.1613 13.2299 10.1613 13.9999C10.1613 14.7699 9.54301 15.3999 8.77301 15.3999ZM12.5997 13.9999C12.5997 14.7699 13.2297 15.3999 13.9997 15.3999C14.7697 15.3999 15.388 14.7699 15.388 13.9999C15.388 13.2299 14.7697 12.6011 13.9997 12.6011C13.2297 12.6011 12.5997 13.2299 12.5997 13.9999ZM17.8263 13.9999C17.8263 14.7699 18.4447 15.3999 19.2263 15.3999C19.9963 15.3999 20.6147 14.7699 20.6147 13.9999C20.6147 13.2299 19.9963 12.6011 19.2263 12.6011C18.4447 12.6011 17.8263 13.2299 17.8263 13.9999Z" fill="white"/>
</g>
</svg>
