<svg width="28" height="28" viewBox="0 0 28 28" fill="none" xmlns="http://www.w3.org/2000/svg">
<rect width="28" height="28" rx="14" fill="#6C5ECF"/>
<path d="M19.5043 8.50624C19.2125 8.20676 18.7807 8.09519 18.378 8.21264L8.98832 10.9431C8.56348 11.0612 8.26236 11.4 8.18124 11.8304C8.09838 12.2685 8.38783 12.8245 8.76598 13.0571L11.7019 14.8616C12.0031 15.0465 12.3917 15.0001 12.6409 14.7488L16.0029 11.3659C16.1721 11.1898 16.4522 11.1898 16.6214 11.3659C16.7907 11.5362 16.7907 11.8122 16.6214 11.9884L13.2537 15.3718C13.0039 15.6226 12.9572 16.0131 13.141 16.3161L14.9349 19.2814C15.145 19.6338 15.5068 19.8334 15.9037 19.8334C15.9503 19.8334 16.0029 19.8334 16.0495 19.8275C16.5047 19.7688 16.8665 19.4576 17.0008 19.0172L19.7844 9.63954C19.907 9.24024 19.7961 8.80571 19.5043 8.50624" fill="white"/>
</svg>
