<svg width="16" height="16" viewBox="0 0 16 16" fill="none" xmlns="http://www.w3.org/2000/svg">
<path fill-rule="evenodd" clip-rule="evenodd" d="M5.39803 8.00008C5.39803 9.4223 6.56226 10.5795 7.99965 10.5795C9.43055 10.5795 10.5948 9.4223 10.5948 8.00008C10.5948 6.57139 9.43055 5.41422 7.99965 5.41422C6.56226 5.41422 5.39803 6.57139 5.39803 8.00008ZM11.8241 4.03079C12.9623 4.90998 13.9314 6.19644 14.6273 7.80614C14.6793 7.92897 14.6793 8.07119 14.6273 8.18756C13.2354 11.4069 10.7574 13.3334 7.99967 13.3334H7.99317C5.24195 13.3334 2.7639 11.4069 1.37203 8.18756C1.32 8.07119 1.32 7.92897 1.37203 7.80614C2.7639 4.58675 5.24195 2.66675 7.99317 2.66675H7.99967C9.37854 2.66675 10.6859 3.14513 11.8241 4.03079ZM8.00047 9.60836C8.89153 9.60836 9.61998 8.88432 9.61998 7.99866C9.61998 7.10654 8.89153 6.3825 8.00047 6.3825C7.92242 6.3825 7.84437 6.38896 7.77283 6.40189C7.74681 7.113 7.16145 7.68189 6.4395 7.68189H6.40698C6.38746 7.78533 6.37446 7.88876 6.37446 7.99866C6.37446 8.88432 7.10291 9.60836 8.00047 9.60836Z" fill="#808191"/>
</svg>
